<svg xmlns="http://www.w3.org/2000/svg" viewBox="0 0 128 128">
  <path fill="#fff" d="M21 91.1a10 10 0 0 1-10-10V50.3a10 10 0 0 1 20 0v30.8a10 10 0 0 1-2.9 7 10 10 0 0 1-7 3m-.1-48c-4-.1-7.3 3.2-7.3 7.2v30.8a7.3 7.3 0 0 0 7.3 7.3 7.3 7.3 0 0 0 7.4-7.3V50.3A7.3 7.3 0 0 0 21 43"/>
  <path fill="#fff" d="M99.7 44.5H28.2v-2.7c0-11 6-21.3 16-27.4l-3.9-7c-.5-.9-.6-2-.3-2.9a3.7 3.7 0 0 1 1.8-2.2 3.6 3.6 0 0 1 1.8-.5c1.3 0 2.6.8 3.2 2l4 7.3A37.8 37.8 0 0 1 64 8.8c4.7 0 9 .8 13.2 2.3l4-7.3a3.7 3.7 0 0 1 3.3-2 3.7 3.7 0 0 1 1.8.5A3.7 3.7 0 0 1 88 4.5a3.7 3.7 0 0 1-.3 2.9l-3.9 7a32.5 32.5 0 0 1 16 27.4v2.7zM80.2 15.4 85.3 6a1 1 0 1 0-1.8-1l-5.1 9.5a35.3 35.3 0 0 0-28.8 0l-5.2-9.4a1 1 0 0 0-1.3-.4 1 1 0 0 0-.4 1.4l5 9.3A30 30 0 0 0 31 41.8H97a30 30 0 0 0-16.8-26.4M48.9 29.9a2.8 2.8 0 0 1 0-5.6 2.8 2.8 0 0 1 2.8 2.8 2.8 2.8 0 0 1-2.8 2.8m30.1 0a2.8 2.8 0 0 1-2.7-2.8 2.8 2.8 0 0 1 2.7-2.8 2.8 2.8 0 0 1 2.8 2.8 2.8 2.8 0 0 1-2.8 2.8m-27.3 96.3a10 10 0 0 1-10-10v-13.6H39a10.5 10.5 0 0 1-7.4-3.1 10.4 10.4 0 0 1-3.1-7.5V41.7h71V92c0 5.8-4.7 10.6-10.5 10.6h-2.7V116a10 10 0 0 1-10 10 10 10 0 0 1-7-2.9 10 10 0 0 1-3-7v-13.6h-4.5V116a10 10 0 0 1-10 10"/>
  <path fill="#fff" d="M31.2 92A7.8 7.8 0 0 0 39 100h5.4V116c0 4 3.3 7.4 7.3 7.4A7.3 7.3 0 0 0 59 116V100h10V116a7.3 7.3 0 0 0 14.6 0V100H89c4.3 0 7.8-3.6 7.8-7.9V44.4H31.2V92zm75.8-.9a10 10 0 0 1-10-10V50.3a10 10 0 0 1 20 0v30.8a10 10 0 0 1-10 10m0-48.1c-4 0-7.4 3.3-7.4 7.3v30.8a7.3 7.3 0 0 0 7.4 7.3 7.3 7.3 0 0 0 7.3-7.3V50.3A7.3 7.3 0 0 0 107 43"/>
  <path fill="#A4C439" d="M21 43c-4 0-7.3 3.3-7.3 7.3v30.8a7.3 7.3 0 0 0 7.3 7.3 7.3 7.3 0 0 0 7.4-7.3V50.3A7.3 7.3 0 0 0 21 43m59.2-27.6L85.3 6a1 1 0 0 0-.4-1.3 1 1 0 0 0-1.4.4l-5.1 9.4a35.2 35.2 0 0 0-28.8 0l-5.2-9.4a1 1 0 0 0-1.3-.4 1 1 0 0 0-.4 1.4l5 9.3A30 30 0 0 0 31 41.8H97a30 30 0 0 0-16.8-26.4M48.9 29.9a2.8 2.8 0 0 1 0-5.6 2.8 2.8 0 0 1 2.8 2.8 2.8 2.8 0 0 1-2.8 2.8m30.1 0a2.8 2.8 0 0 1-2.7-2.8 2.8 2.8 0 0 1 2.7-2.8 2.8 2.8 0 0 1 2.8 2.8 2.8 2.8 0 0 1-2.8 2.8M31.2 44.4V92A7.8 7.8 0 0 0 39 100h5.4V116a7.3 7.3 0 0 0 14.7 0V100H69V116a7.3 7.3 0 0 0 14.6 0V100H89a7.8 7.8 0 0 0 7.8-7.9V44.4H31.2zm83.1 6A7.3 7.3 0 0 0 107 43c-4 0-7.4 3.3-7.4 7.3v30.8a7.3 7.3 0 0 0 7.4 7.3 7.3 7.3 0 0 0 7.3-7.3V50.3z"/>
</svg>
