<svg xmlns="http://www.w3.org/2000/svg" width="720" height="720" viewBox="0 0 190.5 190.5">
  <path fill="#fff" d="M95.3 142.9a47.6 47.6 0 1 0 0-95.3 47.6 47.6 0 0 0 0 95.3z"/>
  <path fill="#229342" d="M54 119 12.8 47.7a95.2 95.2 0 0 0 82.5 142.9l41.2-71.4a47.6 47.6 0 0 1-17.4 17.4 47.6 47.6 0 0 1-47.7 0A47.6 47.6 0 0 1 54 119.1z"/>
  <path fill="#fbc116" d="m136.5 119-41.2 71.5a95.2 95.2 0 0 0 82.4-47.6 95.2 95.2 0 0 0 12.8-47.7c0-16.7-4.4-33.1-12.8-47.6H95.2a47.6 47.6 0 0 1 23.9 6.4 47.6 47.6 0 0 1 17.4 17.4 47.6 47.6 0 0 1 0 47.7z"/>
  <path fill="#1a73e8" d="M95.3 133a37.7 37.7 0 1 0 0-75.4 37.7 37.7 0 0 0 0 75.4z"/>
  <path fill="#e33b2e" d="M95.3 47.6h82.4A95.2 95.2 0 0 0 143 12.8 95.2 95.2 0 0 0 95.2 0a95.2 95.2 0 0 0-47.6 12.8 95.2 95.2 0 0 0-34.8 34.8L54 119.1a47.6 47.6 0 0 1 0-47.7 47.6 47.6 0 0 1 41.3-23.8z"/>
</svg>
