<svg xmlns="http://www.w3.org/2000/svg" width="800" height="800" viewBox="-21.5 0 128 128"><path fill="#000" fill-rule="evenodd" d="M82 120a6 6 0 0 1-6 6H8a6 6 0 0 1-6-6V8a6 6 0 0 1 6-6h68a6 6 0 0 1 6 6v112Zm3-101v-2c0-.6-.5-1-1-1V8a8 8 0 0 0-8-8H8a8 8 0 0 0-8 8v112a8 8 0 0 0 8 8h68a8 8 0 0 0 8-8V36c.5 0 1-.5 1-1V25c0-.6-.5-1-1-1v-4c.5 0 1-.4 1-1ZM42 8a1 1 0 1 0 0-2 1 1 0 0 0 0 2Zm0 115a3 3 0 1 1 0-6 3 3 0 0 1 0 6Zm0-7a4 4 0 1 0 0 8 4 4 0 0 0 0-8Zm37-6a3 3 0 0 1-3 3H8a3 3 0 0 1-3-3V16a3 3 0 0 1 3-3h68a3 3 0 0 1 3 3v94Zm-3-98H8a4 4 0 0 0-4 4v94a4 4 0 0 0 4 4h68a4 4 0 0 0 4-4V16a4 4 0 0 0-4-4Z"/></svg>