<svg xmlns="http://www.w3.org/2000/svg" id="Слой_1" width="800" height="800" data-name="Слой 1" viewBox="0 0 128 128"><defs><style>.cls-2{fill:#404040}</style></defs><path d="M98 53V9.6A7.9 7.9 0 0 0 90 2H38a7.9 7.9 0 0 0-8 7.8v108.5a7.9 7.9 0 0 0 8 7.7h52a7.9 7.9 0 0 0 8-7.8Z" style="fill:#fff"/><path d="M90 128H38a9.9 9.9 0 0 1-10-9.8V9.8A9.9 9.9 0 0 1 38 0h52a9.9 9.9 0 0 1 10 9.8v108.5a9.9 9.9 0 0 1-10 9.7ZM38 4a5.9 5.9 0 0 0-6 5.8v108.5a5.9 5.9 0 0 0 6 5.7h52a5.9 5.9 0 0 0 6-5.8V9.8A5.9 5.9 0 0 0 90 4Z" class="cls-2"/><path d="M75 12H53c-2.8 0-5-2.6-5-5.7V2.5h4v3.8c0 1 .6 1.7 1 1.7h22c.4 0 1-.7 1-1.7V3h4v3.2c0 3.1-2.2 5.7-5 5.7Z" class="cls-2"/></svg>