<svg xmlns="http://www.w3.org/2000/svg" class="svg-icon" style="width:1em;height:1em;vertical-align:middle;fill:currentColor;overflow:hidden" viewBox="0 0 1024 1024"><path d="M838.4 870.4A101 101 0 0 1 736 972.8H288a101 101 0 0 1-102.4-102.4V147.2A101 101 0 0 1 288 44.8h448a101 101 0 0 1 102.4 102.4v723.2zm-57.6-716.8a43.7 43.7 0 0 0-44.8-44.8H288a43.7 43.7 0 0 0-44.8 44.8v723.2a43.7 43.7 0 0 0 44.8 44.8h448a43.7 43.7 0 0 0 44.8-44.8V153.6z"/><path d="M806.4 787.2H217.6c-6.4 0-12.8-6.4-12.8-12.8s6.4-12.8 12.8-12.8h588.8c6.4 0 12.8 6.4 12.8 12.8s-6.4 12.8-12.8 12.8zm0-576H217.6c-6.4 0-12.8-6.4-12.8-12.8s6.4-12.8 12.8-12.8h588.8c6.4 0 12.8 6.4 12.8 12.8s-6.4 12.8-12.8 12.8zm-256 633.6a27.5 27.5 0 0 1-25.6 25.6h-6.4a27.5 27.5 0 0 1-25.6-25.6v-6.4a27.5 27.5 0 0 1 25.6-25.6h6.4a27.5 27.5 0 0 1 25.6 25.6v6.4zM576 467.2c-12.8-6.4-19.2-12.8-12.8-19.2l6.4-12.8c0-6.4 12.8-12.8 19.2-6.4 6.4 0 12.8 12.8 6.4 19.2l-6.4 12.8s-6.4 6.4-12.8 6.4zm-51.2 153.6c-6.4 0-6.4 0 0 0-12.8-6.4-19.2-12.8-12.8-19.2l38.4-115.2c0-6.4 12.8-12.8 19.2-6.4 6.4 0 12.8 12.8 6.4 19.2l-38.4 115.2c-6.4 6.4-6.4 6.4-12.8 6.4zm-64-108.8c-12.8-6.4-19.2-12.8-12.8-19.2L505.6 320c0-6.4 12.8-12.8 19.2-6.4 6.4 0 12.8 12.8 6.4 19.2l-57.6 172.8c0 6.4-6.4 6.4-12.8 6.4zm-25.6 83.2c-12.8-6.4-19.2-12.8-12.8-19.2l6.4-25.6c0-6.4 12.8-12.8 19.2-6.4 6.4 0 12.8 12.8 6.4 19.2l-6.4 25.6s-6.4 6.4-12.8 6.4z"/></svg>