<svg xmlns="http://www.w3.org/2000/svg" xmlns:xlink="http://www.w3.org/1999/xlink">
<defs>
<symbol viewBox="0 0 24 24" id="account-circle"><path  d="M5.85 17.1q1.275-.975 2.85-1.537T12 15q1.725 0 3.3.563t2.85 1.537q.875-1.025 1.363-2.325T20 12q0-3.325-2.337-5.663T12 4Q8.675 4 6.337 6.338T4 12q0 1.475.488 2.775T5.85 17.1M12 13q-1.475 0-2.488-1.012T8.5 9.5q0-1.475 1.013-2.488T12 6q1.475 0 2.488 1.013T15.5 9.5q0 1.475-1.012 2.488T12 13m0 9q-2.075 0-3.9-.788t-3.175-2.137q-1.35-1.35-2.137-3.175T2 12q0-2.075.788-3.9t2.137-3.175q1.35-1.35 3.175-2.137T12 2q2.075 0 3.9.788t3.175 2.137q1.35 1.35 2.138 3.175T22 12q0 2.075-.788 3.9t-2.137 3.175q-1.35 1.35-3.175 2.138T12 22"></path></symbol>
<symbol viewBox="0 0 24 24" id="add"><path  d="M11 13H5v-2h6V5h2v6h6v2h-6v6h-2z"></path></symbol>
<symbol viewBox="0 0 24 24" id="add-card"><path  d="M4 12h16V8H4zm15 10v-3h-3v-2h3v-3h2v3h3v2h-3v3zM4 20q-.825 0-1.412-.587T2 18V6q0-.825.588-1.412T4 4h16q.825 0 1.413.588T22 6v6h-3q-2.075 0-3.537 1.463T14 17v3z"></path></symbol>
<symbol viewBox="0 0 24 24" id="arrow-back"><path  d="m7.825 13l5.6 5.6L12 20l-8-8l8-8l1.425 1.4l-5.6 5.6H20v2z"></path></symbol>
<symbol viewBox="0 0 24 24" id="arrow-back-ios"><path  d="M10 22L0 12L10 2l1.775 1.775L3.55 12l8.225 8.225z"></path></symbol>
<symbol viewBox="0 0 24 24" id="arrow-forward-ios"><path  d="M8.025 22L6.25 20.225L14.475 12L6.25 3.775L8.025 2l10 10z"></path></symbol>
<symbol viewBox="0 0 24 24" id="assured-workload"><path  d="M5 17v-7h2v7zm6 0v-7h2v7zM2 8V6l10-5l10 5v2zm0 13v-2h12.05q.05.525.125 1.013T14.4 21zm15-7.75V10h2v2.25zM20 24q-1.725-.425-2.863-1.987T16 18.55V16l4-2l4 2v2.55q0 1.9-1.137 3.463T20 24m-.725-3l3.475-3.45l-1.05-1.05l-2.425 2.375l-.975-.975l-1.05 1.075z"></path></symbol>
<symbol viewBox="0 0 24 24" id="ballot"><path  d="M12 10h5V8h-5zm0 6h5v-2h-5zm-3-5q.825 0 1.413-.587T11 9q0-.825-.587-1.412T9 7q-.825 0-1.412.588T7 9q0 .825.588 1.413T9 11m0 6q.825 0 1.413-.587T11 15q0-.825-.587-1.412T9 13q-.825 0-1.412.588T7 15q0 .825.588 1.413T9 17m-4 4q-.825 0-1.412-.587T3 19V5q0-.825.588-1.412T5 3h14q.825 0 1.413.588T21 5v14q0 .825-.587 1.413T19 21z"></path></symbol>
<symbol viewBox="0 0 24 24" id="calculate"><path  d="M8 18h1.5v-2h2v-1.5h-2v-2H8v2H6V16h2zm5-.75h5v-1.5h-5zm0-2.5h5v-1.5h-5zm1.1-3.8l1.4-1.4l1.4 1.4l1.05-1.05l-1.4-1.45l1.4-1.4L16.9 6l-1.4 1.4L14.1 6l-1.05 1.05l1.4 1.4l-1.4 1.45zM6.25 9.2h5V7.7h-5zM5 21q-.825 0-1.413-.587T3 19V5q0-.825.588-1.412T5 3h14q.825 0 1.413.588T21 5v14q0 .825-.587 1.413T19 21z"></path></symbol>
<symbol viewBox="0 0 24 24" id="calendar-month"><path  d="M12 14q-.425 0-.712-.288T11 13q0-.425.288-.712T12 12q.425 0 .713.288T13 13q0 .425-.288.713T12 14m-4 0q-.425 0-.712-.288T7 13q0-.425.288-.712T8 12q.425 0 .713.288T9 13q0 .425-.288.713T8 14m8 0q-.425 0-.712-.288T15 13q0-.425.288-.712T16 12q.425 0 .713.288T17 13q0 .425-.288.713T16 14m-4 4q-.425 0-.712-.288T11 17q0-.425.288-.712T12 16q.425 0 .713.288T13 17q0 .425-.288.713T12 18m-4 0q-.425 0-.712-.288T7 17q0-.425.288-.712T8 16q.425 0 .713.288T9 17q0 .425-.288.713T8 18m8 0q-.425 0-.712-.288T15 17q0-.425.288-.712T16 16q.425 0 .713.288T17 17q0 .425-.288.713T16 18M5 22q-.825 0-1.412-.587T3 20V6q0-.825.588-1.412T5 4h1V2h2v2h8V2h2v2h1q.825 0 1.413.588T21 6v14q0 .825-.587 1.413T19 22zm0-2h14V10H5z"></path></symbol>
<symbol viewBox="0 0 24 24" id="close"><path  d="M6.4 19L5 17.6l5.6-5.6L5 6.4L6.4 5l5.6 5.6L17.6 5L19 6.4L13.4 12l5.6 5.6l-1.4 1.4l-5.6-5.6z"></path></symbol>
<symbol viewBox="0 0 24 24" id="dashboard"><path  d="M13 9V3h8v6zM3 13V3h8v10zm10 8V11h8v10zM3 21v-6h8v6z"></path></symbol>
<symbol viewBox="0 0 24 24" id="done"><path  d="m9.55 18l-5.7-5.7l1.425-1.425L9.55 15.15l9.175-9.175L20.15 7.4z"></path></symbol>
<symbol viewBox="0 0 24 24" id="expand-more"><path  d="m12 15.375l-6-6l1.4-1.4l4.6 4.6l4.6-4.6l1.4 1.4z"></path></symbol>
<symbol viewBox="0 0 24 24" id="explore"><path  d="M6.5 17.5L14 14l3.5-7.5L10 10zM12 13q-.425 0-.712-.288T11 12q0-.425.288-.712T12 11q.425 0 .713.288T13 12q0 .425-.288.713T12 13m0 9q-2.075 0-3.9-.788t-3.175-2.137q-1.35-1.35-2.137-3.175T2 12q0-2.075.788-3.9t2.137-3.175q1.35-1.35 3.175-2.137T12 2q2.075 0 3.9.788t3.175 2.137q1.35 1.35 2.138 3.175T22 12q0 2.075-.788 3.9t-2.137 3.175q-1.35 1.35-3.175 2.138T12 22"></path></symbol>
<symbol viewBox="0 0 24 24" id="feedback"><path  d="M2 22V4q0-.825.588-1.412T4 2h16q.825 0 1.413.588T22 4v12q0 .825-.587 1.413T20 18H6zm10-7q.425 0 .713-.288T13 14q0-.425-.288-.712T12 13q-.425 0-.712.288T11 14q0 .425.288.713T12 15m-1-4h2V5h-2z"></path></symbol>
<symbol viewBox="0 0 24 24" id="group"><path  d="M1 20v-2.8q0-.85.438-1.562T2.6 14.55q1.55-.775 3.15-1.162T9 13q1.65 0 3.25.388t3.15 1.162q.725.375 1.163 1.088T17 17.2V20zm18 0v-3q0-1.1-.612-2.113T16.65 13.15q1.275.15 2.4.513t2.1.887q.9.5 1.375 1.112T23 17v3zM9 12q-1.65 0-2.825-1.175T5 8q0-1.65 1.175-2.825T9 4q1.65 0 2.825 1.175T13 8q0 1.65-1.175 2.825T9 12m10-4q0 1.65-1.175 2.825T15 12q-.275 0-.7-.062t-.7-.138q.675-.8 1.038-1.775T15 8q0-1.05-.362-2.025T13.6 4.2q.35-.125.7-.162T15 4q1.65 0 2.825 1.175T19 8"></path></symbol>
<symbol viewBox="0 0 24 24" id="info"><path  d="M11 17h2v-6h-2zm1-8q.425 0 .713-.288T13 8q0-.425-.288-.712T12 7q-.425 0-.712.288T11 8q0 .425.288.713T12 9m0 13q-2.075 0-3.9-.788t-3.175-2.137q-1.35-1.35-2.137-3.175T2 12q0-2.075.788-3.9t2.137-3.175q1.35-1.35 3.175-2.137T12 2q2.075 0 3.9.788t3.175 2.137q1.35 1.35 2.138 3.175T22 12q0 2.075-.788 3.9t-2.137 3.175q-1.35 1.35-3.175 2.138T12 22"></path></symbol>
<symbol viewBox="0 0 24 24" id="install-mobile"><path  d="M7 23q-.825 0-1.412-.587T5 21V3q0-.825.588-1.412T7 1h7v5H7v12h10v-2h2v5q0 .825-.587 1.413T17 23zm11-9l-5-5l1.4-1.4l2.6 2.6V3h2v7.2l2.6-2.6L23 9z"></path></symbol>
<symbol viewBox="0 0 24 24" id="location-on"><path  d="M12 12q.825 0 1.413-.587T14 10q0-.825-.587-1.412T12 8q-.825 0-1.412.588T10 10q0 .825.588 1.413T12 12m0 10q-4.025-3.425-6.012-6.362T4 10.2q0-3.75 2.413-5.975T12 2q3.175 0 5.588 2.225T20 10.2q0 2.5-1.987 5.438T12 22"></path></symbol>
<symbol viewBox="0 0 24 24" id="more-horiz"><path  d="M6 14q-.825 0-1.412-.587T4 12q0-.825.588-1.412T6 10q.825 0 1.413.588T8 12q0 .825-.587 1.413T6 14m6 0q-.825 0-1.412-.587T10 12q0-.825.588-1.412T12 10q.825 0 1.413.588T14 12q0 .825-.587 1.413T12 14m6 0q-.825 0-1.412-.587T16 12q0-.825.588-1.412T18 10q.825 0 1.413.588T20 12q0 .825-.587 1.413T18 14"></path></symbol>
<symbol viewBox="0 0 24 24" id="more-vert"><path  d="M12 20q-.825 0-1.412-.587T10 18q0-.825.588-1.412T12 16q.825 0 1.413.588T14 18q0 .825-.587 1.413T12 20m0-6q-.825 0-1.412-.587T10 12q0-.825.588-1.412T12 10q.825 0 1.413.588T14 12q0 .825-.587 1.413T12 14m0-6q-.825 0-1.412-.587T10 6q0-.825.588-1.412T12 4q.825 0 1.413.588T14 6q0 .825-.587 1.413T12 8"></path></symbol>
<symbol viewBox="0 0 24 24" id="open-in-new"><path  d="M5 21q-.825 0-1.412-.587T3 19V5q0-.825.588-1.412T5 3h7v2H5v14h14v-7h2v7q0 .825-.587 1.413T19 21zm4.7-5.3l-1.4-1.4L17.6 5H14V3h7v7h-2V6.4z"></path></symbol>
<symbol viewBox="0 0 24 24" id="payments"><path  d="M3 20q-.825 0-1.412-.587T1 18V7h2v11h17v2zm4-4q-.825 0-1.412-.587T5 14V6q0-.825.588-1.412T7 4h14q.825 0 1.413.588T23 6v8q0 .825-.587 1.413T21 16zm2-2q0-.825-.587-1.412T7 12v2zm10 0h2v-2q-.825 0-1.412.588T19 14m-5-1q1.25 0 2.125-.875T17 10q0-1.25-.875-2.125T14 7q-1.25 0-2.125.875T11 10q0 1.25.875 2.125T14 13M7 8q.825 0 1.413-.587T9 6H7zm14 0V6h-2q0 .825.588 1.413T21 8"></path></symbol>
<symbol viewBox="0 0 24 24" id="person"><path  d="M12 12q-1.65 0-2.825-1.175T8 8q0-1.65 1.175-2.825T12 4q1.65 0 2.825 1.175T16 8q0 1.65-1.175 2.825T12 12m-8 8v-2.8q0-.85.438-1.562T5.6 14.55q1.55-.775 3.15-1.162T12 13q1.65 0 3.25.388t3.15 1.162q.725.375 1.163 1.088T20 17.2V20z"></path></symbol>
<symbol viewBox="0 0 24 24" id="schedule"><path  d="m15.3 16.7l1.4-1.4l-3.7-3.7V7h-2v5.4zM12 22q-2.075 0-3.9-.788t-3.175-2.137q-1.35-1.35-2.137-3.175T2 12q0-2.075.788-3.9t2.137-3.175q1.35-1.35 3.175-2.137T12 2q2.075 0 3.9.788t3.175 2.137q1.35 1.35 2.138 3.175T22 12q0 2.075-.788 3.9t-2.137 3.175q-1.35 1.35-3.175 2.138T12 22"></path></symbol>
<symbol viewBox="0 0 24 24" id="share"><path  d="M18 22q-1.25 0-2.125-.875T15 19q0-.175.025-.363t.075-.337l-7.05-4.1q-.425.375-.95.588T6 15q-1.25 0-2.125-.875T3 12q0-1.25.875-2.125T6 9q.575 0 1.1.213t.95.587l7.05-4.1q-.05-.15-.075-.337T15 5q0-1.25.875-2.125T18 2q1.25 0 2.125.875T21 5q0 1.25-.875 2.125T18 8q-.575 0-1.1-.212t-.95-.588L8.9 11.3q.05.15.075.338T9 12q0 .175-.025.363T8.9 12.7l7.05 4.1q.425-.375.95-.587T18 16q1.25 0 2.125.875T21 19q0 1.25-.875 2.125T18 22"></path></symbol>
<symbol viewBox="0 0 24 24" id="today"><path  d="M9 16.5q-1.05 0-1.775-.725T6.5 14q0-1.05.725-1.775T9 11.5q1.05 0 1.775.725T11.5 14q0 1.05-.725 1.775T9 16.5M5 22q-.825 0-1.412-.587T3 20V6q0-.825.588-1.412T5 4h1V2h2v2h8V2h2v2h1q.825 0 1.413.588T21 6v14q0 .825-.587 1.413T19 22zm0-2h14V10H5z"></path></symbol>

</defs>
</svg>