<svg xmlns="http://www.w3.org/2000/svg" width="86" height="86" viewBox="0 0 64.5 64.5">
  <clipPath id="a">
    <path d="M-69.5 795.25h595v-841h-595Z"/>
  </clipPath>
  <g clip-path="url(#a)">
    <path fill="#fff" fill-rule="evenodd" d="M53.94 10.85H54A30.5 30.5 0 0 0 40.83 3.1a29.74 29.74 0 0 0-8.5-1.22A30.76 30.76 0 0 0 1.66 32.53a30.76 30.76 0 0 0 30.65 30.65 30.76 30.76 0 0 0 30.65-30.65c0-8.45-3.5-16.09-9.03-21.68"/>
    <path fill="none" stroke="#00004b" stroke-width="1.15" d="M53.94 10.85H54A30.5 30.5 0 0 0 40.83 3.1a29.74 29.74 0 0 0-8.5-1.22A30.76 30.76 0 0 0 1.66 32.53a30.76 30.76 0 0 0 30.65 30.65 30.76 30.76 0 0 0 30.65-30.65c0-8.45-3.5-16.09-9.03-21.68Z"/>
    <path fill="#00004b" fill-rule="evenodd" d="M53.88 11.08a30.63 30.63 0 0 0-43.3 0 30.63 30.63 0 0 0 0 43.3Z"/>
    <path fill="#fff" fill-rule="evenodd" d="M6.92 27.05h1.16V24.6h.58l-.23-.99h1.28l-.23 1h.58v2.44h1.23v4.49h8.45v-6.82c-.06-.12-.12-.3-.18-.41l.12-.06v-.17h.12v-.12h.8c0-.06-.05-.06-.05-.12h.12v-.11h.11v-.12h.3v-.29h-.12v-.35h.12v-.12h.11c0-.17 0-.35.06-.52h.23c.12-.35 0-.7-.11-.93.17 0 .23 0 .29.17.11-.06.11-.06.29-.06 0 .3-.06.53 0 .82h.12v.52h.23v-4.02h.06v-.12h.11c.06-.4-.05-.99.35-.99l.12-.34c.12-.06.3-.12.4-.18v.06l.07-.06V15.7c-.06 0-.12.05-.18.05v-.7c.3-.29.35-.87.58-.99 0-.17-.05-.4-.05-.46 0 0 .05 0 .05-.06v-.23c.18-.12.36-.24.59-.35 0-.06 0-.06-.18-.88l.3-.29.23-4.02h-.06v-.23h.12v-.35c-.7-.24-.88-.93-.41-1.4l.17.23c-.23.41-.23.64.24.82l.05-.18-.23-.23.06-.3.23-.4c.06.18.18.23.23.4l.12.24-.23.3v.17c.52-.3.29-.58.23-.88 0-.05.06-.17.12-.23.46.53.35 1.28-.3 1.46v.35h.12l.06.23h-.11c.11 1.4.17 2.68.17 4.08.12.06.12.06.3.23-.07.24-.18.64-.18.88l.52.35c-.06.05-.06.11-.06.17l.18.12c-.06.17-.12.29-.12.46.3.12.4.76.7 1-.06.23 0 .46 0 .7-.12-.06-.12-.06-.17-.06v1.57c.17 0 .23.06.4.12.06.93-.05.34.3.34.17.12.17.76.17 1h.11v.11h.12v4.02h.06v-.52h.23c.06-.4.06-.64-.06-.93.12 0 .24 0 .24.17.12-.06.12-.06.29-.06 0 .24 0 .53.06.82h.11v.52h.18v.12h.06v.35h-.06v.3h.23v.1h.12v.12h.17v.12h.65v.12h.11v.17h.06c0 .18-.12.4-.17.58v6.7h2.62v10.5H4.64v-10.5h2.28Z"/>
    <path fill="#fff" fill-rule="evenodd" d="M18.1 27.69h12.24v-4.31h14.92v4.3H56.8V48.9H45.26v4.43H30.34V48.9H18.1Z"/>
    <path fill="none" stroke="#00004b" stroke-width=".69" d="M18.1 27.69h12.24v-4.31h14.92v4.31H56.8V48.9H45.26v4.43H30.34V48.9H18.1V27.69Z"/>
    <path fill="#00004b" fill-rule="evenodd" d="M19.39 28.97h12.23v-4.31h12.41v4.31h11.54v18.7H44.03v4.44h-12.4v-4.43H19.38Z"/>
    <path fill="#fff" fill-rule="evenodd" d="M48.4 34.86v7.28h-4.42v-6.7Zm0-3.67H22.13l9.32 14.27V34.97l16.95-2.1Zm-4.42 12h4.42v2.27h-4.42Zm4.42-10.31v-1.7h4.38v1.17Zm0 9.26v-7.28l4.38-.64v7.92Zm0 1.05h4.38v2.27H48.4Z"/>
  </g>
</svg>
