<svg xmlns="http://www.w3.org/2000/svg" width="338" height="338" fill="none">
  <path fill="#ADADAD" d="M159.3 317c44.9 3.8 82.6-7.6 84-25.6 1.6-18-33.5-35.6-78.5-39.5-44.9-3.8-82.5 7.7-84 25.6-1.6 18 33.6 35.7 78.5 39.5Z"/>
  <path fill="#E8E8E8" d="M110.4 67.6a7287 7287 0 0 1-29.6 187c7.7 2 23.5 7 25.2 9.7a274 274 0 0 1-5 15.2c3.6 1 18.7 8 25.8 11.3 14.4 0 24.4 2 27.6 3.2 2.4-.1 7.4-9 9.6-13.3v1c1.6-1.7 16.9-3.5 24.3-4.2l2.7 17.9c5.6-.6 32.7-10.8 45.6-15.8l-2-13 11-5.3c-2.1-19-7-33.8-10.6-53.7l-1.9-10c-3.2-17.2-8-42-10.5-54.2-1.8-9.8-7.4-42.9-15.8-97-8.4-54.2-21.8-22.1-27.5.7l-36.5 1c-5.3-10.4-16.7-30.4-20.2-26.3-4.4 5-6.5.6-12.2 45.8Z"/>
  <path fill="#E8E8E8" d="m234.7 266.6 10.8-5.3c-2-19-7-33.8-10.5-53.7l-1.9-10c-3.2-17.2-8-42-10.5-54.2-1.8-9.8-7.4-42.9-15.8-97-8.4-54.2-21.8-22.1-27.5.7l-36.5 1c-5.3-10.4-16.7-30.4-20.2-26.3-4.4 5-6.5.6-12.2 45.8a7287 7287 0 0 1-29.6 187c7.7 2 23.5 7 25.2 9.7m128.7 2.3 1.9 13c-12.9 5-40 15.2-45.6 15.8l-2.7-18m46.4-10.8c-1.3-2.8-4.3-10.2-6.5-17.3-2.2-7.1-4.4-30.5-5.2-41.4m-46 3.4c2.2 12 6.9 37.7 7.8 43.3l3.5 22.9m0 0c-7.4.7-22.7 2.5-24.2 4.2v-1m-3.7-57.4 1.3 12c.6 4.2 1.8 31.4 2.3 45.4m0 0c-2.2 4.4-7.2 13.2-9.6 13.3-3.2-1.1-13.2-3.3-27.6-3.2a412.9 412.9 0 0 0-25.8-11.3 274 274 0 0 0 5-15.2m14.5-71.4c-1.6 7.9-5.4 27.6-7.7 43.2-1.4 9.1-4.1 19.5-6.8 28.2"/>
  <path stroke="#717171" d="m234.7 266.6 10.8-5.3c-2-19-7-33.8-10.5-53.7l-1.9-10c-3.2-17.2-8-42-10.5-54.2-1.8-9.8-7.4-42.9-15.8-97-8.4-54.2-21.8-22.1-27.5.7l-36.5 1c-5.3-10.4-16.7-30.4-20.2-26.3-4.4 5-6.5.6-12.2 45.8a7287 7287 0 0 1-29.6 187c7.7 2 23.5 7 25.2 9.7m128.7 2.3 1.9 13c-12.9 5-40 15.2-45.6 15.8l-2.7-18m46.4-10.8c-1.3-2.8-4.3-10.2-6.5-17.3-2.2-7.1-4.4-30.5-5.2-41.4m-117 56.4a274 274 0 0 1-5 15.2c3.6 1 18.7 8 25.8 11.3 14.4 0 24.4 2 27.6 3.2 2.4-.1 7.4-9 9.6-13.3m-58-16.4c2.7-8.7 5.4-19.1 6.8-28.2 2.3-15.6 6.1-35.3 7.7-43.2m67.8 84.6a1675 1675 0 0 0-11.2-66.2m11.2 66.2c-7.4.7-22.7 2.5-24.2 4.2v-1m0 0c-.6-14-1.8-41.2-2.4-45.5l-1.3-12"/>
  <path fill="#000" d="M271.5 138.3c-1 22-26 47.6-38.4 57.6l3 19c3.3-1.3 24.4-25.3 34.5-37a95 95 0 0 0 18.4-38.6c1-8.5 1-28.8-6.2-41.8-7.2-13-6.5-23.7-5.3-27.4.4-5.5 7.8-8.7 7.6-13.7-.1-5-1.3-13-11-16.2-7.6-2.6-13.4 2.5-15.3 5.4-12.9 20.4-1.3 39.6 6.7 56.9a76 76 0 0 1 6 35.8ZM135.9 96.3c5.3 2.3 12.7-2.7 16.4-11.2 3.6-8.5 2.2-17.3-3.1-19.6-5.4-2.4-12.8 2.7-16.5 11.2-3.6 8.5-2.2 17.3 3.2 19.6ZM189 93.7c5.2-2.6 6.1-11.4 2-19.7-4.2-8.3-11.8-12.9-17-10.2-5.3 2.6-6.2 11.4-2 19.7 4.1 8.3 11.7 12.9 17 10.2Z"/>
</svg>
