<svg xmlns="http://www.w3.org/2000/svg">
    <symbol id="google" viewBox="0 0 186.69 190.5">
        <path fill="#4285f4"
            d="M95.25 77.93v36.89h51.26a43.92 43.92 0 0 1-19.13 28.66l30.9 23.99c18.02-16.63 28.41-41.05 28.41-70.05 0-6.76-.6-13.25-1.73-19.49z" />
        <path fill="#34a853"
            d="m41.87 113.38-6.97 5.34-24.68 19.22c15.67 31.09 47.8 52.56 85.03 52.56 25.72 0 47.28-8.48 63.04-23.03l-30.92-23.99c-8.48 5.72-19.3 9.18-32.12 9.18-24.77 0-45.8-16.71-53.34-39.22z" />
        <path fill="#fbbc05"
            d="M10.22 52.56C3.72 65.38 0 79.84 0 95.25s3.72 29.87 10.22 42.69c0 .09 31.7-24.6 31.7-24.6-1.91-5.7-3.04-11.77-3.04-18.1s1.13-12.37 3.03-18.09z" />
        <path fill="#ea4335"
            d="M95.25 37.93c14.03 0 26.5 4.85 36.45 14.2l27.28-27.28C142.44 9.44 120.97 0 95.25 0 58.02 0 25.89 21.39 10.22 52.56l31.69 24.6c7.53-22.52 28.58-39.23 53.34-39.23z" />
    </symbol>

    <symbol id="yandex" viewBox="120 120 800 800">
        <path fill="#000"
            d="M735 878.3H616.7V293.2H564c-96.6 0-147.2 48.3-147.2 120.4 0 81.8 34.9 119.7 107.1 168l59.5 40.1-171 256.5H285.2l153.9-229c-88.5-63.2-138.3-124.9-138.3-229 0-130.1 90.7-218.6 262.4-218.6h171v676.5h.8z" />
    </symbol>

    <symbol id="vk" viewBox="0 0 512 512">
        <path fill-rule="evenodd"
            d="M484.7 132c3.56-11.28 0-19.48-15.75-19.48h-52.37c-13.21 0-19.31 7.18-22.87 14.86 0 0-26.94 65.6-64.56 108.13-12.2 12.3-17.79 16.4-24.4 16.4-3.56 0-8.14-4.1-8.14-15.37V131.47c0-13.32-4.06-19.47-15.25-19.47H199c-8.14 0-13.22 6.15-13.22 12.3 0 12.81 18.81 15.89 20.84 51.76V254c0 16.91-3 20-9.66 20-17.79 0-61-66.11-86.92-141.44C105 117.64 99.88 112 86.66 112H33.79C18.54 112 16 119.17 16 126.86c0 13.84 17.79 83.53 82.86 175.77 43.21 63 104.72 96.86 160.13 96.86 33.56 0 37.62-7.69 37.62-20.5v-47.66c0-15.37 3.05-17.93 13.73-17.93 7.62 0 21.35 4.09 52.36 34.33C398.28 383.6 404.38 400 424.21 400h52.36c15.25 0 22.37-7.69 18.3-22.55-4.57-14.86-21.86-36.38-44.23-62-12.2-14.34-30.5-30.23-36.09-37.92-7.62-10.25-5.59-14.35 0-23.57-.51 0 63.55-91.22 70.15-122" />
    </symbol>

    <symbol id="ff" viewBox="0 0 1892.69 1465.32">
        <path fill="#fff" fill-rule="evenodd" stroke="#0058a2" stroke-width=".69"
            d="M.34 211.21H598.7V.34h729.48v210.87h564.17v1037.15h-564.17v216.62H598.7v-216.62H.34V211.21z" />
        <path fill="#0058a2" fill-rule="evenodd"
            d="M63.04 273.88H661.4V63h606.95v210.88h564.21v914.68h-564.21v216.58H661.4v-216.58H63.04V273.88z" />
        <path fill="#fff" fill-rule="evenodd"
            d="M1482 969.17h213.75v111.1H1482v-111.1Zm0-51.34V561.66l213.75-31.32v387.52Zm0-453v-82.65h213.75v57ZM1265.44 969.2H1482v111.1h-216.56V969.2Zm216.56-587H196.95l455.9 698.09V567.34L1482 464.77v-82.59Zm0 179.48v356.17h-216.56V590.19Z" />
    </symbol>

    <symbol id="msu" viewBox="620 -60 750 750">
        <path fill="#264796" fill-rule="evenodd"
            d="m110.78 840.77 34.81-.4v-8.2h-26.43l10.82-27.93-7.25-2.14a9.71 9.71 0 0 0-1.48-.26l-20.87 29.14Z" />
        <path fill="#005799" d="M776.83 1423.88h295.71v11.6H776.83z" />
        <path fill="#005799" fill-rule="evenodd"
            d="M1730.55 855.64c-21.31 0-38.49-13.1-38.49-29.24 0-13.74 12.41-24.61 28.94-27.88l2.67-1 .31.51c2.19-.27 4.3-1 6.57-1 20.34 0 38.4 12.44 38.4 29.35 0 16.14-17.44 29.24-38.4 29.24Zm-483.83 469.65h-17.56v-319.23h17.56v319.23Zm-48.89 5.27h-12.67v-33.46h-6.2v-41.85h-6.5v-18.53h-12.5l-16.36 28.7-14.58-.15v46.67h-6.29v18.62h-18.57v-98.63h93.64v98.63Zm-107-4.61h-5.84v-89h5.84v89Zm-150.42-122.17h182v9h-182v-9Zm106.19 117.41h-18.33v-9.65h5.81v-84.3h12.52v94Zm-49.14-10.09h-5.85v-84.3h5.85v84.3Zm-31.75-18.45h-12.34v-65.41h12.34v65.41Zm-25.3 37.18h-81.53v-103.08h6.28v93.94h16.8l19-14.17h9.75v2.45l-10.41 11.72h40.16v9.14Zm-31.46-37.18v-65.41h-12.44v65.41Zm-181.79-88.87h181.8v9h-181.8v-9Zm99.91 121.51h-11.8v-98.31h11.8v98.31Zm-68.74.26h-5.85v-88.92h5.85v88.92Zm-18.62 5h-18.94v-18.62h-6.31v-46.67l-14.41.15-16.44-28.7H671.1v18.53h-6.46v41.85h-6.07v33.46h-12.69v-98.63h93.84v98.63Zm-93.62-149.93h75.4V751.68h17.28v437.45h-7v.34H646.1v-8.84Zm125.26-14.75h95.49l15.94-6.82-42.21-36 15.5-8.2 29.1 14.87 25.62-19.19 17.37.15 25.74 19.22 27.29-15 15.49 8.49-37.17 29.68 14.17 11.2-.21 1.69h85.77v18.88h-93.2v-4.13h-13.38v-10.1h-6.08v-4.21h-6.3v-19.3h-31.12v18.83h-5.94v5h-6.73v9h-12.55v4.86H771.36v-18.88Zm11.2-414.2v390.41h13v-390.4Zm101.9 344h-13.44V752.4h13.45v343.24Zm62.75.54H934V753.09h13.2v343.13Zm-94.93-409.4h113.47v9.44H852.28v-9.44Zm7.79-122.29h10.92v94h-10.91v-94Zm35.4 94h-10.9v-94h10.91v94Zm25.3 0h-10.75v-94h10.76v94Zm24.94 0h-10.87v-94h10.88v94ZM865.61 531.9h81v4.68h-81v-4.68Zm6.19-178.6h5.76v69.87h-5.76V353.3Zm-2.31-333.32 14.91 15.11c-11.12 4.1-23.13-6.76-14.91-15.11Zm39.83-1.33c8.21 8.32-3.83 19.13-14.95 15.07l14.95-15.07Zm-6.43 404.55h-5.68v-69.86h5.68v69.86Zm19.16-69.9h5.74v69.87h-5.74V353.3Zm118.46 394.21v394.58h13.2V747.51Zm44.36-.75h17.54v428.85h75.18v8.79h-85.54v-.35h-7.18V746.76Zm-484 583.32h-17.44v-324.32h17.46v324.32Zm-487.55-468c-21.48 0-38.89-13.87-38.89-30.82s17.41-30.73 38.89-30.73c2.84 0 5.37.81 7.93 1.22l.11-.13 1.37.44c16.89 3.32 29.54 14.85 29.54 29.2 0 16.95-17.37 30.82-38.95 30.82Zm1724.48 55.65.32-23.31-7.57.06 1.44-37.29-18.09-.52-.31 37.32h-12.24l.61-107.32-7.52-.11v-42.61h-17.72v42.61h-7.21l.14-56.28-18.78-.09V701.5h6.5l.09-5.3-6.29.06.32-8.29-37.81-.66v8.67h-6.79v5.62l6-.1-.16 27.36-17.51.2-.73 58h-6.75v-43h-18.81l.41 43h-12.47l.32 107h-13.26l.17-32.36h-17.89l-.21 32.1h-19.83v-27.52l-18.31-.15-.23 18.13-6.47.15-.54-36.64h-12V833.4h6.61l-.21-14.08-37.21-.16-.17 14 6 .09v14.4h-12l.07 31.9-6.26.25-.14-13.72-12.68-.14v14.16l-12.6.1-.27 37.06h6.4v33.4h-239l-.12-52.06h-18.06v-19.14l-6.91-.09v-9.15h-19l.1 9.24h-6.39l-.27 18.68h-18.67l-.3 52.52h-43.38l.37-235.6h5.89v-9.23h-6.15v-4.77h-6.3v-42.54h-6.22v-4.53l-6 .11v4.42l-6.42.12-.48 47.28-11.88.21.11-28.44-13.15-.17v-9.27l-12.67.05.22-14.2h-13.22l-.3-28.27h7.43v-13.76l-25.53-19.34-24.35 19.45.11 13.65h5.65l.24 23.13-6.54.21-.16-4.71h-6.5l-.41-182.23-11.22.12-.45-47.45h-18.77l-.66 42.07-6.13.1-.51-23.67h-6.23v-5.07l-6.7.18v-9.31h-5l-1-93.78-5.21-.11v-14.28l-6.53-.2-.24 14.57h-18.53v-23.55h6.35v-37.37h-12.91v-4.71h-12.31l.14-18.35 5.79-.08-.69-28.22h-11.43l.13-37.64-6.84-.1-8.34-127.98c27.21-9.06 24.78-34.59 19.45-41.52C908.95-9 905.63 8.97 904.6 10.23l-10.83 2.91-1.31-6.38-5.07-.5-2.83.69-1 6.54-11.24-3.09c-1.17-1.24-4.31-17.89-15.35-3.08-5.37 7.2-5 32.66 27 41.9l.39 126.45h-7.06l.22 42.45h-11.36l.18 23.59 5.11.15v18.07l-12.57.11v4.79H846.4l.38 37.64h6v23.46h-12.54l-.32-14.24h-6.49v14.24l-6.46.17.85 102.62h-6.42v5h-6.71l-.06 19.58h-6.19l-.55-37.65h-19l.82 50.5h-6.94l1.09 178.81h-6.39l-.2 4.65-6.3.16.1-23.53h5.48l.24-13.83-24.46-19.37-25.52 19.36.36 13.83 7.42-.07-.6 28.16h-13.22l.18 14.37h-12.54l-.22 9.17-13.16.22.16 28.26h-11.71l-.21-47.36-6.61-.15-.09-4.51h-6.3v4.66h-6.11v42.36h-6.19v4.85h-6.08v9.15h5.87l.21 239.94-36.83-.1-.48-52.36-18.81-.22v-18.59h-6.5l.2-9.08H576.3v9.08h-6.8v19.09h-17.76l-.3 52.08-213.17-.15V921.6l6.54.06-.14-37.07h-12.51l-.47-14.35-12.39.2-.11 13.71-9.05-.14v-31.89h-9.34v-14.46l5.94-.16-.05-14.16-37.25.39-.25 14.21 5.56-.09v14.33h-11.06l-.49 36.5h-6.46l-.14-18.24-18.3.11.11 27.61H218.6l-.1-32-18.12.2.41 32.21h-13.51l.14-107.22h-12.21l.24-42.87H156.6l.05 42.87h-6.84l-.46-57.79-17.58-.32-.2-27.18 6.3.1v-5.76h-7.05l.23-8.57-38.15.62.43 8.27-6.26-.15.18 5.41h6.38v28.76H74.8l.07 56.32h-7l-.14-42.62H50.06l.11 42.62-7.56.26.55 107.3-12.11-.22-.36-37.16-18 .38v36.78H5.04l.4 23.31-5.44.34v13.91l5 .12.04 499.32h56.6V980.95h13.6v454.45h131.84V982.86h17.38v452.54h132.78v-429.64h17.62v429.64h250.72l21.58-20.75h99.59l63.14-28.72h137.53v-17.32h-82.81v10.26H846.4l-6.77-15.12 12.13.16v-15.39h151.58v33.46h57.6l47.46 23.8H1211l33.65 29.66h217.4v-429.33h17.58v429.29h126.36V983.16h17.34v452.24h133.54V982.63h11.23v452.77h70.23l.21-503.21h4.62v-14.32Z" />
        <path fill="#264796" fill-rule="evenodd"
            d="m1722.41 827.91-29.42.58 3.43 9h40.11l1.07-14.94-13.62-24.49c-1 .17-2 .23-3 .45l-11.4 4Z" />
    </symbol>

    <symbol id="github" viewBox="0 0 500 500">
        <path
            d="M165.9 389.4c0 2-2.3 3.6-5.2 3.6-3.3.3-5.6-1.3-5.6-3.6 0-2 2.3-3.6 5.2-3.6 3-.3 5.6 1.3 5.6 3.6zm-31.1-4.5c-.7 2 1.3 4.3 4.3 4.9 2.6 1 5.6 0 6.2-2 .6-2-1.3-4.3-4.3-5.2-2.6-.7-5.5.3-6.2 2.3zm44.2-1.7c-2.9.7-4.9 2.6-4.6 4.9.3 2 2.9 3.3 5.9 2.6 2.9-.7 4.9-2.6 4.6-4.6-.3-1.9-3-3.2-5.9-2.9zM244.8 0C106.1 0 0 105.3 0 244c0 110.9 69.8 205.8 169.5 239.2 12.8 2.3 17.3-5.6 17.3-12.1 0-6.2-.3-40.4-.3-61.4 0 0-70 15-84.7-29.8 0 0-11.4-29.1-27.8-36.6 0 0-22.9-15.7 1.6-15.4 0 0 24.9 2 38.6 25.8 21.9 38.6 58.6 27.5 72.9 20.9 2.3-16 8.8-27.1 16-33.7-55.9-6.2-112.3-14.3-112.3-110.5 0-27.5 7.6-41.3 23.6-58.9-2.6-6.5-11.1-33.3 2.6-67.9 20.9-6.5 69 27 69 27 20-5.6 41.5-8.5 62.8-8.5 21.3 0 42.8 2.9 62.8 8.5 0 0 48.1-33.6 69-27 13.7 34.7 5.2 61.4 2.6 67.9 16 17.7 25.8 31.5 25.8 58.9 0 96.5-58.9 104.2-114.8 110.5 9.2 7.9 17 22.9 17 46.4 0 33.7-.3 75.4-.3 83.6 0 6.5 4.6 14.4 17.3 12.1C428.2 449.8 496 354.9 496 244 496 105.3 383.5 0 244.8 0zM97.2 344.9c-1.3 1-1 3.3.7 5.2 1.6 1.6 3.9 2.3 5.2 1 1.3-1 1-3.3-.7-5.2-1.6-1.6-3.9-2.3-5.2-1zm-10.8-8.1c-.7 1.3.3 2.9 2.3 3.9 1.6 1 3.6.7 4.3-.7.7-1.3-.3-2.9-2.3-3.9-2-.6-3.6-.3-4.3.7zm32.4 35.6c-1.6 1.3-1 4.3 1.3 6.2 2.3 2.3 5.2 2.6 6.5 1 1.3-1.3.7-4.3-1.3-6.2-2.2-2.3-5.2-2.6-6.5-1zm-11.4-14.7c-1.6 1-1.6 3.6 0 5.9 1.6 2.3 4.3 3.3 5.6 2.3 1.6-1.3 1.6-3.9 0-6.2-1.4-2.3-4-3.3-5.6-2z" />
    </symbol>

    <symbol id="telegram" viewBox="0 0 30 30">
        <path d="M 25.154297 3.984375 C 24.829241 3.998716 24.526384 4.0933979 24.259766 4.2011719 C 24.010014 4.3016357 23.055766 4.7109106 21.552734 5.3554688 C 20.048394 6.0005882 18.056479 6.855779 15.931641 7.7695312 C 11.681964 9.5970359 6.9042108 11.654169 4.4570312 12.707031 C 4.3650097 12.746607 4.0439208 12.849183 3.703125 13.115234 C 3.3623292 13.381286 3 13.932585 3 14.546875 C 3 15.042215 3.2360676 15.534319 3.5332031 15.828125 C 3.8303386 16.121931 4.144747 16.267067 4.4140625 16.376953 C 5.3912284 16.775666 8.4218473 18.015862 8.9941406 18.25 C 9.195546 18.866983 10.29249 22.222526 10.546875 23.044922 C 10.714568 23.587626 10.874198 23.927519 11.082031 24.197266 C 11.185948 24.332139 11.306743 24.45034 11.453125 24.542969 C 11.511635 24.579989 11.575789 24.608506 11.640625 24.634766 L 11.644531 24.636719 C 11.659471 24.642719 11.67235 24.652903 11.6875 24.658203 C 11.716082 24.668202 11.735202 24.669403 11.773438 24.677734 C 11.925762 24.726927 12.079549 24.757812 12.216797 24.757812 C 12.80196 24.757814 13.160156 24.435547 13.160156 24.435547 L 13.181641 24.419922 L 16.191406 21.816406 L 19.841797 25.269531 C 19.893193 25.342209 20.372542 26 21.429688 26 C 22.057386 26 22.555319 25.685026 22.875 25.349609 C 23.194681 25.014192 23.393848 24.661807 23.478516 24.21875 L 23.478516 24.216797 C 23.557706 23.798129 26.921875 6.5273437 26.921875 6.5273438 L 26.916016 6.5507812 C 27.014496 6.1012683 27.040303 5.6826405 26.931641 5.2695312 C 26.822973 4.8564222 26.536648 4.4608905 26.181641 4.2480469 C 25.826669 4.0352506 25.479353 3.9700339 25.154297 3.984375 z M 24.966797 6.0742188 C 24.961997 6.1034038 24.970391 6.0887279 24.962891 6.1230469 L 24.960938 6.1347656 L 24.958984 6.1464844 C 24.958984 6.1464844 21.636486 23.196371 21.513672 23.845703 C 21.522658 23.796665 21.481573 23.894167 21.439453 23.953125 C 21.379901 23.91208 21.257812 23.859375 21.257812 23.859375 L 21.238281 23.837891 L 16.251953 19.121094 L 12.726562 22.167969 L 13.775391 17.96875 C 13.775391 17.96875 20.331562 11.182109 20.726562 10.787109 C 21.044563 10.471109 21.111328 10.360953 21.111328 10.251953 C 21.111328 10.105953 21.035234 10 20.865234 10 C 20.712234 10 20.506484 10.14875 20.396484 10.21875 C 18.963383 11.132295 12.671823 14.799141 9.8515625 16.439453 C 9.4033769 16.256034 6.2896636 14.981472 5.234375 14.550781 C 5.242365 14.547281 5.2397349 14.548522 5.2480469 14.544922 C 7.6958673 13.491784 12.47163 11.434667 16.720703 9.6074219 C 18.84524 8.6937992 20.838669 7.8379587 22.341797 7.1933594 C 23.821781 6.5586849 24.850125 6.1218894 24.966797 6.0742188 z"/>
    </symbol>
</svg>
