<svg xmlns="http://www.w3.org/2000/svg" width="362" height="362" fill="none">
  <g clip-path="url(#a)">
    <path fill="#00004B" d="M181 341c85 0 154-70.3 154-157S266 27 181 27 27 97.3 27 184s69 157 154 157Z"/>
    <path fill="#5C5CAB" d="M206.1 100.1c.3 1.3 8-52.8 68.7-44.6 56.2 7.6 60.7 66.5 57.7 83.4-4 22.7-4.6 20.3-9 29.3a78.8 78.8 0 0 1-20.4 24.6c-7.3 6-20.6 12.3-54.4 3.7"/>
    <path stroke="#717171" stroke-miterlimit="10" d="M206.1 100.1c.3 1.3 8-52.8 68.7-44.6 56.2 7.6 60.7 66.5 57.7 83.4-4 22.7-4.6 20.3-9 29.3a78.8 78.8 0 0 1-20.4 24.6c-7.3 6-20.6 12.3-54.4 3.7"/>
    <path fill="#D9CAEE" stroke="#717171" stroke-miterlimit="10" d="M219.2 96.3c4.7-.6 11.6-3 11.6-3l25.4-19.7a2.8 2.8 0 0 1 4.3 1.2c1.9 5.1 5.3 14.7 6.3 20.5 1 6.3 10.8 12.7 15.6 15.5a3.4 3.4 0 0 0 4.3-.8c2.8-3.5 8.2-9.7 9.7-7.9 2.1 2.5 4.2 6 .1 33-4 27-4 25.6-4 25.6 0-.2-4.7 20.6-20.6 27.3-12.2 5.2-23.2 8.5-23.2 8.5s-17.2-1.6-49.4 29.2c-32.3 30.8-55.2 33-72.8 32-20.2-.9-50-21.5-49.9-47.8.1-26.3-9.6-14.6-9.6-14.6s-15.4 7.4-20 43.2c-4.6 35.9 28.3 52 28.3 52s28.3 24.8 67.5-3.4c32.5-23.4 37.1 32-19.2 31.3-62.3-.8-82.3-34.7-82.3-34.7s-10.4-7.4-12-38.3C27.5 214.5 56.7 186 56.7 186l17.6-15.6s14.2-23.6 50.4-39.7a824.9 824.9 0 0 1 94.4-34.4Z"/>
    <path fill="#D9CAEE" d="M206.1 100.1s16.1 63.6 42.6 96.4L206 100Z"/>
    <path stroke="#717171" stroke-miterlimit="10" d="M206.1 100.1s16.1 63.6 42.6 96.4"/>
    <path fill="#D9CAEE" d="M201.6 101.6s3.1 49.1 39.9 96.2l-40-96.2Z"/>
    <path stroke="#717171" stroke-miterlimit="10" d="M201.6 101.6s3.1 49.1 39.9 96.2"/>
    <path fill="#D9CAEE" d="M189.9 160s-30.1 30.6 7.3 22.7l-7.3-22.8Z"/>
    <path stroke="#717171" stroke-miterlimit="10" d="M189.9 160s-30.1 30.6 7.3 22.7"/>
    <path fill="#D9CAEE" d="M244.5 197s-2.7 47.9-21.3 9.6l21.3-9.6Z"/>
    <path stroke="#717171" stroke-miterlimit="10" d="M244.5 197s-2.7 47.9-21.3 9.6"/>
    <path fill="#D9CAEE" d="M121.6 216.7s-13.5 2.2-6.3 13.2c5.6 8.4 10.5 1.8 10.5 1.8"/>
    <path stroke="#717171" stroke-miterlimit="10" d="M121.6 216.7s-13.5 2.2-6.3 13.2c5.6 8.4 10.5 1.8 10.5 1.8"/>
    <path fill="#D9CAEE" d="M173.7 245.7s-11.2 35.4-21.2 8.5l21.2-8.5Z"/>
    <path stroke="#717171" stroke-miterlimit="10" d="M173.7 245.7s-11.2 35.4-21.2 8.5"/>
    <path fill="#E4E4E4" stroke="#717171" stroke-miterlimit="10" d="M238.7 135c7.4 1.2 14.4-3.3 15.6-10 1.2-7-3.8-13.5-11.2-14.8-7.5-1.3-14.5 3.2-15.7 10-1.2 6.8 3.9 13.4 11.3 14.7ZM276.9 155.1c7.4 1.3 14.4-3.2 15.6-10 1.2-6.8-3.8-13.4-11.3-14.7-7.4-1.3-14.4 3.1-15.6 10-1.2 6.8 3.9 13.4 11.3 14.7Z"/>
    <path fill="#000" stroke="#717171" stroke-miterlimit="10" d="M239.8 128.8c4 .7 7.6-1.5 8.2-5 .6-3.5-2-6.8-6-7.5-4-.7-7.6 1.5-8.2 5-.6 3.5 2 6.8 6 7.5ZM278.6 149.1c3.9.7 7.6-1.5 8.2-5 .6-3.5-2.1-6.8-6-7.5-4-.7-7.6 1.5-8.2 5-.6 3.5 2 6.8 6 7.5Z"/>
    <path fill="#D9CAEE" d="M247.4 157.2s10.9-4.7 9.6 4.8l-9.6-4.8Z"/>
    <path stroke="#717171" stroke-miterlimit="10" d="M247.4 157.2s10.9-4.7 9.6 4.8"/>
    <path fill="#BDA3EE" d="M54 122.8c10.1-.9 13.8-18.2 14.3-26.8 0 19.6 8.5 26 12.7 26.8-9.7 0-12.5 14.1-12.7 21.2 0-13.8-9.5-20-14.3-21.2ZM274 227.8c10.1-.9 13.8-18.2 14.3-26.8 0 19.6 8.5 26 12.7 26.8-9.7 0-12.5 14.1-12.7 21.2 0-13.8-9.5-20-14.3-21.2ZM199 328.8c10.1-.9 13.8-18.2 14.3-26.8 0 19.6 8.5 26 12.7 26.8-9.7 0-12.5 14.1-12.7 21.2 0-13.8-9.5-20-14.3-21.2ZM204 21.8c10.1-.9 13.8-18.2 14.3-26.8 0 19.6 8.5 26 12.7 26.8-9.7 0-12.5 14.1-12.7 21.2 0-13.8-9.5-20-14.3-21.2Z"/>
  </g>
  <defs>
    <clipPath id="a">
      <path fill="#fff" d="M0 0h362v362H0z"/>
    </clipPath>
  </defs>
</svg>
