<svg xmlns="http://www.w3.org/2000/svg" width="362" height="362" fill="none">
  <path fill="#D9D9D9" d="M175.5 333c55 0 99.5-9 99.5-20s-44.5-20-99.5-20S76 302 76 313s44.5 20 99.5 20Z"/>
  <path fill="#fff" stroke="#717171" d="M269.6 244c2.7-11.3 9.6-16.8 12.7-18.1-2.7-3.3-18.2-10.2-49.5-13.3-31.4-3-77-4-116.5 0-31.6 3.2-45.2 9.8-48 12.7 11.7 6.6 11.3 16.2 13.2 25a67.4 67.4 0 0 0 8 17.9c3.8-5.1 19.1-16 50.6-18.5a442 442 0 0 1 75.1.5c25.7 2.4 40 9.5 45.1 17.6a67 67 0 0 0 9.3-23.8Z"/>
  <path fill="#00004B" stroke="#717171" d="M175.3 281.8a494 494 0 0 0 64-3.6c10.6-1.1 17.3-6 21.8-12.3-5-8-19.4-15.1-45-17.5a442 442 0 0 0-75.2-.6c-31.5 2.6-46.8 13.4-50.6 18.5 4.4 6.2 8.5 7.2 13.2 9.7 7.3 4 46.6 5.6 71.8 5.8Z"/>
  <path fill="#fff" stroke="#717171" d="M69 291.4c-5-57.6-2.8-56-.5-67.6 11.7 6.6 11.3 16.2 13.2 24.9a67.4 67.4 0 0 0 8 18c4.4 6.2 8.6 7 13.2 9.6 7.4 4 46.6 5.6 71.8 5.8 25 .2 41.3-1.1 64-3.6 10.6-1.1 17.3-6 21.9-12.2a67 67 0 0 0 9.3-23.8c2.7-11.4 9.5-16.8 12.6-18.2 3.2 9.9.8 50.8 0 61a70.4 70.4 0 0 1-3.2 17.6 42.6 42.6 0 0 1-19.5 14c-24.3 6.3-66.9 7.3-85.1 7-20 .4-63.7 0-78.8-5.3C77 312 73.4 306 71.7 303.3a42 42 0 0 1-2.6-12Z"/>
  <path fill="#D9D9D9" d="M258.2 341.3c.2-2 4.4-.8 6.5.1.1 0 1 .2 2.9 1.5 2.4 1.6 1.5 3.2.3 4.3-1.1 1.1-3.4 2.5-4.7 2.6-1.2 0-3.2-1.1-2.8-2.9.3-1.8-.2-1.8-1.2-3-.7-1.1-1-2.2-1-2.6ZM265.6 341.2c.7.6 2.3.6 3.5 0 1.2-.7 1.6-1.8.8-2.4-.7-.6-2.3-.6-3.5 0-1.2.7-1.6 1.7-.8 2.4ZM269.9 343.3c.4.7 2.1 1 3.6.6 1.6-.4 2.5-1.3 2-2-.5-.8-2.2-1-3.7-.6-1.6.3-2.4 1.3-2 2ZM270.4 346.3c-.1.8 1.3 1.7 3.2 2 2 .2 3.6-.2 3.7-1 .1-.9-1.3-1.8-3.2-2-2-.3-3.6.1-3.7 1ZM267.5 348.5c-.3.7.6 1.6 2.2 2 1.6.5 3 .3 3.4-.4.4-.7-.6-1.7-2.2-2.1-1.5-.5-3-.3-3.4.5ZM341 340.5c.1-2 4.4-.8 6.4 0 .2 0 1 .3 3 1.6 2.4 1.6 1.4 3.2.3 4.3-1.2 1-3.5 2.4-4.8 2.6-1.2 0-3.1-1.2-2.8-3 .3-1.7-.1-1.7-1.1-3-.8-1-1-2.1-1-2.5ZM348.3 340.3c.8.7 2.3.6 3.6 0 1.2-.6 1.5-1.7.8-2.3-.8-.7-2.4-.6-3.6 0-1.2.6-1.6 1.7-.8 2.3ZM352.6 342.5c.5.7 2.1 1 3.7.6 1.5-.4 2.4-1.3 2-2-.6-.8-2.2-1-3.8-.7-1.5.4-2.4 1.3-1.9 2ZM353.1 345.4c0 .9 1.4 1.8 3.3 2 1.9.3 3.5-.1 3.7-1 0-.8-1.4-1.7-3.3-2-1.9-.2-3.5.2-3.7 1ZM350.2 347.6c-.3.8.7 1.7 2.2 2.1 1.6.5 3.1.3 3.5-.5.3-.7-.7-1.6-2.2-2-1.6-.5-3.1-.3-3.5.4ZM313.4 350.3c.1-2 4.3-.8 6.4.1.2 0 1 .3 2.9 1.5 2.4 1.6 1.5 3.2.3 4.3-1.1 1.1-3.4 2.5-4.7 2.6-1.2.1-3.1-1.1-2.8-2.9.3-1.8-.2-1.8-1.1-3-.8-1.1-1-2.2-1-2.6ZM320.7 350.2c.7.6 2.3.6 3.6 0 1.2-.7 1.5-1.8.8-2.4-.8-.6-2.4-.6-3.6 0-1.2.7-1.6 1.7-.8 2.4ZM325 352.3c.5.7 2.1 1 3.7.6 1.5-.4 2.4-1.3 1.9-2-.5-.8-2.1-1-3.7-.6-1.5.3-2.4 1.3-2 2ZM325.5 355.3c0 .8 1.4 1.7 3.3 2 1.9.2 3.5-.2 3.6-1 .2-.9-1.3-1.8-3.2-2-1.9-.3-3.5.1-3.7 1ZM322.6 357.5c-.3.7.7 1.6 2.2 2 1.6.5 3.1.3 3.5-.4.3-.7-.7-1.7-2.2-2.1-1.6-.5-3.1-.3-3.5.5ZM288 336.6c.2-2.1 4.4-.8 6.5 0 .1 0 .9.3 2.8 1.6 2.5 1.5 1.6 3.2.4 4.3-1.2 1-3.5 2.4-4.7 2.5-1.3.1-3.2-1-2.9-2.9.4-1.7-.1-1.7-1-3-.9-1-1-2.1-1-2.5ZM295.3 336.4c.8.6 2.4.6 3.6 0 1.2-.7 1.6-1.7.8-2.3-.7-.7-2.3-.7-3.5 0-1.2.6-1.6 1.7-.9 2.3ZM299.6 338.5c.5.8 2.2 1 3.7.6 1.6-.3 2.4-1.3 2-2-.5-.7-2.2-1-3.7-.6-1.6.4-2.5 1.3-2 2ZM300.2 341.5c-.1.8 1.3 1.7 3.2 2 2 .3 3.6-.2 3.7-1 .1-.8-1.3-1.7-3.2-2-2-.3-3.6.2-3.7 1ZM297.3 343.7c-.4.7.6 1.7 2.2 2.1 1.5.5 3 .2 3.4-.5.3-.7-.6-1.6-2.2-2-1.6-.5-3-.3-3.4.4Z"/>
</svg>
