<svg xmlns="http://www.w3.org/2000/svg" width="240" height="276" fill="none"><path fill="#D9D9D9" stroke="#000" d="M142.5 211.5c0 2.8-1.6 5.5-4.8 8a45 45 0 0 1-13.5 6.7 145.3 145.3 0 0 1-44.7 6.3c-17.5 0-33.3-2.4-44.7-6.3a45 45 0 0 1-13.5-6.7c-3.2-2.5-4.8-5.2-4.8-8s1.6-5.5 4.8-8a45 45 0 0 1 13.5-6.7c11.4-3.9 27.2-6.3 44.7-6.3 17.5 0 33.3 2.4 44.7 6.3a45 45 0 0 1 13.5 6.7c3.2 2.5 4.8 5.2 4.8 8Z"/><path fill="#D9CAEE" d="M57.7 186.3c-4.6 10.4-17.2 39.8-17.4 41.5l15 3.3c7.8 1.7 30 1.6 40.2 1.4a98.5 98.5 0 0 0 35.2-9l14.3-41c7-23.9 7.4-32.7 14.2-44 9.4-15.3 11-27 12.9-29.5 2-2.5 6.6-3.4 8.3-7.3 1.7-3.8 3-8 9-9.2 6-1.3 14-1.6 17.3-1.7 3.3 0 6.6 1.7 8 3 1.4 1.3 2.6 2 4 2.1 1.4.1 5.3-.5 7-.8 1.3-.3 1-1.7.6-2.4.6-1-.2-2.2-.7-2.7.6-1.6-1.4-3.1-2.5-3.7-.2-3.2-3.2-3.8-4.6-3.6-6.8-3.6-11.3-4-12.7-3.7-7.7 1-23.9 3-27.8 1.8-4-1.1-9.1 2.8-11.2 4.8l.6-1.1c.8-3.4 3.4-8.8 4.6-11 6.2-4.1 19.6-12.1 23.6-11.5 5 .8 7.2 1 7 .7 0-.2 2.6-2 4-2.7 4.2-1.4 2.3-3.6.8-4.6 1.7-1 .6-2-.2-2.5-.7-2.8-4.2-2.4-5.8-1.9-2.3-3-5-1.7-6.1-1.4l-6.6 1.6c-1 .4-15.8 9-18.6 10-2.9.8-13.7 5-15.7 7.2s-2.8 8.7-9.4 14.4c-5.3 4.7-14 7.7-17.7 8.7-4.6-1.7-14.3 3.3-18.7 6-5.3-24-7.7-21.9-7.7-34.8 0-12.9.5-19.7 1.4-24.7 1-4.7 2.8-14.5 10.3-18.2 3.8-1.9 20.1-3.8 13.6-9.9-2.9-1.7-18.3-.4-25.3 7.5C90.8 29 91.8 36.1 89.7 49.2a90 90 0 0 0-1 24.4c1 9.8 2.4 12.1 1.2 31.7-1 18.9-22.7 57.5-23.2 60.6-.4 3-4.4 10-9 20.4Z"/><path stroke="#717171" d="m166.8 85.6.6-1.1c.8-3.4 3.4-8.8 4.6-11 6.2-4.1 19.6-12.1 23.6-11.5 5 .8 7.2 1 7 .7 0-.2 2.6-2 4-2.7 4.2-1.4 2.3-3.6.8-4.6 1.7-1 .6-2-.2-2.5-.7-2.8-4.2-2.4-5.8-1.9-2.3-3-5-1.7-6.1-1.4l-6.6 1.6c-1 .4-15.8 9-18.6 10-2.9.8-13.7 5-15.7 7.2s-2.8 8.7-9.4 14.4c-5.3 4.7-14 7.7-17.7 8.7-4.6-1.7-14.3 3.3-18.7 6-5.3-24-7.7-21.9-7.7-34.8 0-12.9.5-19.7 1.4-24.7 1-4.7 2.8-14.5 10.3-18.2 3.8-1.9 20.1-3.8 13.6-9.9-2.9-1.7-18.3-.4-25.3 7.5C90.8 29 91.8 36.1 89.7 49.2a90 90 0 0 0-1 24.4c1 9.8 2.4 12.1 1.2 31.7-1 18.9-22.7 57.5-23.2 60.6-.4 3-4.4 10-9 20.4-4.6 10.4-17.2 39.8-17.4 41.5l15 3.3c7.8 1.7 30 1.6 40.2 1.4a98.5 98.5 0 0 0 35.2-9l14.3-41c7-23.9 7.4-32.7 14.2-44 9.4-15.3 11-27 12.9-29.5 2-2.5 6.6-3.4 8.3-7.3 1.7-3.8 3-8 9-9.2 6-1.3 14-1.6 17.3-1.7 3.3 0 6.6 1.7 8 3 1.4 1.3 2.6 2 4 2.1 1.4.1 5.3-.5 7-.8 1.3-.3 1-1.7.6-2.4.6-1-.2-2.2-.7-2.7.6-1.6-1.4-3.1-2.5-3.7-.2-3.2-3.2-3.8-4.6-3.6-6.8-3.6-11.3-4-12.7-3.7-7.7 1-23.9 3-27.8 1.8-4-1.1-9.1 2.8-11.2 4.8Zm0 0c-1 1.2-4 3.8-7.6 4.7-4.5 1.2-22.3 2.9-27.8 5.4-4.5.5-14.3 2-18.3 4.1"/></svg>